<svg xmlns="http://www.w3.org/2000/svg" width="192" height="192" viewBox="0 0 512 512">
  <defs>
    <linearGradient id="bg" x1="0%" y1="0%" x2="100%" y2="100%">
      <stop offset="0%" style="stop-color:#1e3a5f"/>
      <stop offset="100%" style="stop-color:#2563eb"/>
    </linearGradient>
    <linearGradient id="glow" x1="50%" y1="0%" x2="50%" y2="100%">
      <stop offset="0%" style="stop-color:#93c5fd;stop-opacity:0.3"/>
      <stop offset="100%" style="stop-color:#60a5fa;stop-opacity:0"/>
    </linearGradient>
  </defs>
  <rect width="512" height="512" rx="112" fill="url(#bg)"/>
  <ellipse cx="256" cy="220" rx="160" ry="120" fill="url(#glow)"/>
  <path d="M256 180 C256 180 200 165 140 175 C120 178 105 188 105 205 L105 340 C105 350 115 358 135 355 C195 345 256 360 256 360 Z" fill="white" opacity="0.95"/>
  <path d="M256 180 C256 180 312 165 372 175 C392 178 407 188 407 205 L407 340 C407 350 397 358 377 355 C317 345 256 360 256 360 Z" fill="white" opacity="0.85"/>
  <line x1="256" y1="175" x2="256" y2="362" stroke="#2563eb" stroke-width="3" opacity="0.4"/>
  <line x1="256" y1="160" x2="256" y2="120" stroke="#93c5fd" stroke-width="2.5" opacity="0.5" stroke-linecap="round"/>
  <line x1="256" y1="160" x2="220" y2="128" stroke="#93c5fd" stroke-width="2" opacity="0.35" stroke-linecap="round"/>
  <line x1="256" y1="160" x2="292" y2="128" stroke="#93c5fd" stroke-width="2" opacity="0.35" stroke-linecap="round"/>
  <text x="256" y="425" text-anchor="middle" fill="white" font-family="system-ui, -apple-system, sans-serif" font-size="52" font-weight="700" letter-spacing="8" opacity="0.9">SS</text>
</svg>